<?xml version="1.0" encoding="UTF-8"?>
    <svg fill="#FFFFFF" xmlns="http://www.w3.org/2000/svg" viewBox="0 0 486.18 192.75">
        <path d="M324.64,123.41c-.61-.11-1.33-.24-2.16-.4-.83-.16-1.68-.31-2.54-.44-.86-.13-1.71-.25-2.55-.34s-1.59-.13-2.26-.13c-1.86,0-3.68,.19-5.46,.58-1.78,.38-3.44,.95-4.98,1.71-1.54,.75-2.95,1.68-4.23,2.78-1.28,1.1-2.39,2.38-3.33,3.83-.94,1.45-1.67,3.05-2.17,4.81-.51,1.75-.77,3.66-.77,5.72,0,1.79,.22,3.52,.66,5.2,.44,1.67,1.05,3.21,1.84,4.62,.79,1.41,1.76,2.69,2.91,3.84,1.16,1.15,2.48,2.15,3.96,2.98,1.49,.83,3.11,1.47,4.88,1.91,1.76,.44,3.65,.66,5.65,.66,1.22,0,2.33-.05,3.33-.15,1-.1,1.94-.22,2.81-.36s1.67-.3,2.4-.46c.73-.16,1.41-.32,2.01-.48,.2-.07,.29-.16,.29-.27v-8.3c0-.18-.1-.27-.29-.27h-2.12c-.09,0-.16,.03-.21,.08-.05,.05-.08,.1-.08,.13l-1.1,6.2c0,.11-.07,.21-.21,.29-.39,.21-.87,.38-1.42,.48s-1.11,.2-1.68,.27c-.56,.07-1.13,.12-1.71,.16s-1.06,.05-1.45,.05c-2.27,0-4.35-.47-6.22-1.42-1.87-.95-3.47-2.25-4.79-3.89s-2.35-3.55-3.06-5.72c-.72-2.17-1.07-4.46-1.07-6.88s.34-4.43,1.02-6.35,1.67-3.58,2.98-4.96c1.31-1.38,2.91-2.44,4.82-3.2,1.91-.75,4.09-1.13,6.54-1.13,.52,0,1.06,.04,1.62,.11,.56,.07,1.11,.17,1.64,.28,.53,.12,1.04,.24,1.54,.36,.5,.13,.91,.22,1.24,.3,.14,.07,.21,.16,.21,.27l1.1,6.18c0,.07,.03,.12,.08,.16,.05,.04,.12,.05,.21,.05h2.12c.2,0,.29-.09,.29-.27v-8.33c0-.14-.1-.23-.29-.27Z"/>
        <path d="M350.93,157.89l-3.46-.99c-.14-.07-.21-.18-.21-.32v-14.85c0-1.27-.21-2.32-.62-3.14-1.09-2.2-3.47-3.3-7.14-3.3-2.6,0-5.34,.52-8.24,1.56-.18,.07-.27,.16-.27,.27v6.1c0,.16,.09,.24,.27,.24h1.72c.18,0,.27-.08,.27-.24l.78-4.06c.07-.21,.16-.37,.27-.46,1.18-.57,2.57-.86,4.16-.86,2.79,0,4.19,1.42,4.19,4.27v4.24c-1.75,.14-3.71,.44-5.86,.89-.97,.2-1.92,.51-2.85,.94-3.08,1.41-4.62,3.63-4.62,6.66,0,.86,.16,1.67,.48,2.42,.99,2.31,2.88,3.46,5.69,3.46s5.21-1.07,7.52-3.2l.46,2.58c0,.18,.09,.27,.27,.27l7.25-.97c.09,0,.17-.1,.24-.29v-.94c-.02-.07-.12-.16-.3-.27Zm-8.3-2.42c0,.09-.09,.2-.27,.32-.95,.48-1.66,.81-2.15,.99-.97,.34-1.79,.51-2.47,.51-2.34,0-3.52-1.17-3.52-3.52,0-2.18,.95-3.6,2.85-4.24,.63-.21,1.07-.36,1.32-.43,.95-.3,2.36-.51,4.24-.62v6.98Z"/>
        <path d="M366.93,158l-4.35-.38c-.18-.02-.27-.11-.27-.27v-35.99c0-.18-.09-.27-.27-.27h-1.61c-.07,0-.16,.02-.27,.05l-6.93,1.1c-.09,0-.16,.09-.21,.27v1.26c0,.18,.09,.27,.27,.27l4.3,.46c.18,0,.27,.09,.27,.27v32.58c0,.18-.09,.27-.27,.27l-4.3,.38c-.18,0-.27,.1-.27,.29v1.37c0,.18,.09,.27,.27,.27h13.64c.18,0,.27-.09,.27-.27v-1.37c0-.18-.09-.28-.27-.29Z"/>
        <path d="M396.31,158l-3.97-.43c-.18,0-.27-.09-.27-.27v-21.51c0-.18-.09-.27-.27-.27h-1.53c-.16,.02-.28,.04-.35,.05l-6.58,1.1c-.16,0-.24,.09-.24,.27v1.26c0,.18,.1,.27,.3,.27l3.95,.46c.18,0,.27,.09,.27,.27v15.84c0,.11-.09,.21-.27,.32-1.86,1.15-3.68,1.72-5.45,1.72-3.44,0-5.16-1.71-5.16-5.13v-16.17c0-.18-.09-.27-.27-.27h-1.61c-.12,.02-.21,.04-.27,.05l-6.61,1.1c-.14,0-.21,.09-.21,.27v1.26c0,.18,.09,.27,.27,.27l3.97,.46c.18,0,.27,.09,.27,.27v14.69c0,2.08,.69,3.74,2.07,5,1.32,1.22,3.03,1.83,5.13,1.83,2.88,0,5.63-1.12,8.24-3.36l.19,2.74c.02,.2,.11,.29,.27,.27l8.19-.54c.14-.02,.21-.11,.21-.27v-1.26c0-.2-.09-.29-.27-.29Z"/>
        <path d="M421.66,160.2c-1-1.31-2.51-2.17-4.51-2.58-1.16-.25-2.94-.38-5.34-.38h-4.27c-.48,0-.9-.03-1.26-.08-1.11-.16-1.67-.92-1.67-2.28,0-.91,.64-1.75,1.93-2.5,1.06,.38,2.26,.56,3.62,.56,2.6,0,4.81-.85,6.65-2.54,1.83-1.69,2.75-3.82,2.75-6.38,0-2.24-.7-4.13-2.1-5.67l4.86-.38c.18-.02,.27-.11,.27-.27v-1.4c0-.18-.09-.27-.27-.27h-8.03c-1.22-.52-2.53-.78-3.92-.78-2.63,0-4.87,.84-6.71,2.52-1.9,1.72-2.85,3.88-2.85,6.5,0,3.19,1.3,5.59,3.89,7.22-2.7,1.63-4.05,3.37-4.05,5.21,0,.98,.29,1.88,.86,2.67,.57,.8,1.32,1.32,2.26,1.57-1.29,.5-2.44,1.35-3.44,2.55-1.11,1.31-1.67,2.6-1.67,3.89,0,2.45,1.27,4.25,3.81,5.4,1.9,.86,4.23,1.29,7.01,1.29,1.88,0,3.61-.21,5.18-.64,2.4-.66,4.33-1.72,5.8-3.17,1.67-1.65,2.5-3.63,2.5-5.96,0-.36-.04-.76-.11-1.21-.18-1.15-.58-2.12-1.21-2.93Zm-15.66-19.23c.7-2.24,2.09-3.36,4.16-3.36,3.01,0,4.51,2.25,4.51,6.74,0,1.24-.12,2.25-.38,3.04-.7,2.17-2.01,3.25-3.92,3.25-1.34,0-2.42-.47-3.22-1.4-1.04-1.2-1.56-2.94-1.56-5.21,0-1.18,.13-2.2,.4-3.06Zm9.8,29.65c-1.47,.82-3.33,1.24-5.59,1.24-4.83,0-7.25-1.72-7.25-5.16,0-1.11,.39-2.22,1.18-3.32,.79-1.1,1.71-1.74,2.77-1.92h4.62c4.66,0,6.98,1.49,6.98,4.46,0,2.1-.9,3.66-2.71,4.7Z"/>
        <path d="M446.96,157.89l-3.46-.99c-.14-.07-.21-.18-.21-.32v-14.85c0-1.27-.21-2.32-.62-3.14-1.09-2.2-3.47-3.3-7.14-3.3-2.6,0-5.34,.52-8.24,1.56-.18,.07-.27,.16-.27,.27v6.1c0,.16,.09,.24,.27,.24h1.72c.18,0,.27-.08,.27-.24l.78-4.06c.07-.21,.16-.37,.27-.46,1.18-.57,2.57-.86,4.16-.86,2.79,0,4.19,1.42,4.19,4.27v4.24c-1.75,.14-3.71,.44-5.86,.89-.97,.2-1.92,.51-2.85,.94-3.08,1.41-4.62,3.63-4.62,6.66,0,.86,.16,1.67,.48,2.42,.99,2.31,2.88,3.46,5.69,3.46s5.21-1.07,7.52-3.2l.46,2.58c0,.18,.09,.27,.27,.27l7.25-.97c.09,0,.17-.1,.24-.29v-.94c-.02-.07-.12-.16-.3-.27Zm-8.3-2.42c0,.09-.09,.2-.27,.32-.95,.48-1.66,.81-2.15,.99-.97,.34-1.79,.51-2.47,.51-2.34,0-3.52-1.17-3.52-3.52,0-2.18,.95-3.6,2.85-4.24,.63-.21,1.07-.36,1.32-.43,.95-.3,2.36-.51,4.24-.62v6.98Z"/>
        <path d="M96.65,82.63v-2.98c0-.25-.09-2.47-3.07-2.62l-19.54-.86V13.1h33.21l3.98,12.01c.18,.73,.81,1.91,2.98,1.91h7.99c2.41,0,3.05-1.65,3.05-2.62V6.38c0-.95-.64-2.56-3.05-2.56H3.05C.64,3.82,0,5.43,0,6.38V24.4c0,.97,.64,2.62,3.05,2.62h7.99c2.17,0,2.8-1.18,2.98-1.91l3.98-12.01H51.22v63.09l-19.55,.86c-2.97,.14-3.06,2.36-3.06,2.62v2.98c0,.26,.09,2.56,3.16,2.56h61.73c3.07,0,3.16-2.3,3.16-2.56Z"/>
        <path d="M241.88,85.2h53.42c2.41,0,3.05-1.61,3.05-2.56v-2.86c0-1.13-.77-2.5-2.96-2.62l-16.18-.75V41.06h24.92c2.41,0,3.05-1.65,3.05-2.62v-4.1c0-.97-.64-2.62-3.05-2.62h-24.92v-8.44c0-9.55,5.38-14,16.93-14,1.99,0,3.88,.13,5.61,.37,2.97,.42,4.13,.82,4.53,1.01l2.54,7.29c.17,.74,.8,1.94,3.1,1.94h6.63c2.96,0,3.05-2.2,3.05-2.45V4.41c0-.88-.44-2.04-2.53-2.61l-.25-.05c-8.54-1.17-15.42-1.76-20.46-1.76-12.29,0-22.21,2.11-29.49,6.27-7.37,4.18-11.11,11.57-11.11,21.95v3.79l-15.11,1.01c-2.35,.03-2.98,1.62-2.98,2.56v2.86c0,.97,.64,2.62,3.05,2.62h15.04v35.35l-15.88,.74c-2.41,0-3.05,1.65-3.05,2.62v2.86c0,.95,.64,2.56,3.05,2.56Z"/>
        <path d="M483.02,31.28h-34.6c-3.07,0-3.16,2.3-3.16,2.56v2.92c0,.9,.61,2.42,2.88,2.45l8.66,.52-22.66,28.49-22.02-28.49,8.71-.53c2.27-.03,2.88-1.55,2.88-2.45v-2.92c0-.26-.09-2.56-3.16-2.56h-44.8c-.94,0-1.6,.25-2.07,.6-.32-.09-.67-.15-1.09-.15h-24.92v-8.44c0-9.55,5.38-14,16.93-14,1.99,0,3.88,.13,5.61,.37,2.97,.42,4.13,.82,4.53,1.01l2.54,7.29c.17,.74,.8,1.94,3.1,1.94h6.63c2.96,0,3.05-2.2,3.05-2.45V4.41c0-.88-.44-2.04-2.53-2.61l-.25-.05c-8.54-1.17-15.42-1.76-20.46-1.76-12.29,0-22.21,2.11-29.49,6.27-7.37,4.18-11.11,11.57-11.11,21.95v3.79l-15.11,1.01c-2.35,.03-2.98,1.62-2.98,2.56v2.86c0,.97,.64,2.62,3.05,2.62h15.04v35.35l-15.88,.74c-2.41,0-3.05,1.65-3.05,2.62v2.86c0,.95,.64,2.56,3.05,2.56h53.42c2.41,0,3.05-1.61,3.05-2.56v-2.86c0-1.13-.77-2.5-2.96-2.62l-16.18-.75V41.06h24.92c1.84,0,2.65-.96,2.93-1.85l12.12,.76,34.4,43.5c-3.31,4.05-6.13,7.12-8.4,9.13-3.74,3.35-7.22,5.68-10.33,6.93-4.02,1.58-9.37,2.39-15.88,2.39-.75,0-1.43,.16-2,.46l-.2,.11-2.76,2.41c-.66,.52-1,1.26-.94,2.04,.04,.49,.28,1.41,1.49,2.06l10.4,5.5,.22,.06c.74,.2,1.39,.29,1.98,.29,10.98,0,23.33-8.79,37.74-26.87l38.28-48.12,11.43-.65c3.01-.03,3.09-2.3,3.09-2.56v-2.81c0-.26-.09-2.56-3.16-2.56Z"/>
        <path d="M177.56,95.88c30.33,0,55.01-21.51,55.01-47.94S207.89,0,177.56,0s-55.01,21.51-55.01,47.94,24.68,47.94,55.01,47.94Zm0-87.76c25.2,0,45.7,17.86,45.7,39.82s-20.5,39.82-45.7,39.82-45.7-17.86-45.7-39.82,20.5-39.82,45.7-39.82Z"/>
        <path d="M291.54,99.53c.42-2.4-.34-4.65-2.14-6.32-2.61-2.41-7-3.49-14.23-3.49-4.35,0-9.14,.39-13.39,.73-.86,.07-1.7,.14-2.51,.2-15.22,1.17-29.33,6.78-39.73,15.78-4.61,3.99-8.37,8.59-11.15,13.59-6.51-10.08-17.26-16.37-29.05-16.37-7.89,0-15.35,2.74-21.58,7.92-3.09,2.57-5.74,5.63-7.86,9.06-3.56-6.34-8.73-12-15.12-16.48-9.82-6.88-22.17-10.67-34.78-10.67-8.94,0-16.06,.41-21.18,1.23-6.42,1.02-10.19,2.75-11.84,5.45-.79,1.3-1.76,3.95,.72,7.18,1.43,1.86,3.78,12.94,4,34.73,.21,20.29-1.7,32.77-3.04,34.82-2.13,3.22-1.08,5.77-.26,7,3.32,5,13.87,5.98,30.97,5.98h.62c12.53,0,24.82-3.75,34.61-10.55,6.35-4.41,11.49-9.99,15.08-16.24,2.13,3.51,4.79,6.64,7.93,9.28,6.26,5.26,13.77,8.04,21.73,8.04,12.01,0,22.88-6.46,29.34-16.81,2.76,4.8,6.42,9.22,10.87,13.07,10.38,8.97,24.48,14.59,39.7,15.81,2.22,.18,4.72,.27,7.23,.27,7.75,0,21.38-.83,25.55-6.36,1.78-2.36,1.82-5.17,.1-7.9-8.32-13.24-4.91-54.47-.59-78.95Zm-146.66,51.53c-4.95,17.83-23.68,30.7-44.89,30.7h-1c-14.39,0-19.76-.96-21.76-1.68,3.79-7.58,3.87-30.88,3.79-38.08-.09-9.29-.78-30.98-4.97-38.26,2.12-.77,8.12-2.14,23.94-2.14,21.39,0,40.16,13,44.98,31.02,.67,2.23,1.29,5.19,1.34,8.68,.05,4-.68,7.35-1.42,9.76Zm34.45,21.23c-11.35,0-21.5-8.68-24.92-21.21-.25-1.59-.44-3.27-.55-5.03-.33-5,.01-9.51,.64-13.39,3.5-12.34,13.61-20.89,24.83-20.89s20.75,7.96,24.54,19.91c0,3.29,0,6.59,.03,9.91,.02,3.48,.05,6.94,.1,10.38-3.65,12.01-13.68,20.32-24.66,20.32Zm87.26,12.35c-2.26,0-4.51-.08-6.49-.24-23.15-1.86-41.31-14.52-46.55-32.36-.59-2.89-1.04-6.38-1.05-10.34,0-3.84,.41-7.23,.95-10.06,5.16-17.96,23.77-31.13,46.63-32.89,.8-.06,1.63-.13,2.49-.2h.06c3.97-.33,8.46-.69,12.46-.69,4.59,0,6.49,.5,7.18,.77-.94,5.43-10.64,63.73,1.58,83.59-1.61,.93-7.11,2.43-17.26,2.43Z"/>
        <path d="M163.03,33.09c5.37-4.39,10.59-7.48,16.72-11.93-7.78-3.96-17.11-1.91-23.73,3.45-6.56,5.31-10.59,15.39-6.19,23.23,4.26-6.3,7.86-10.31,13.19-14.75Z"/>
</svg>